<?xml version="1.0" encoding="utf-8"?>
<!-- Generator: Adobe Illustrator 25.2.1, SVG Export Plug-In . SVG Version: 6.00 Build 0)  -->
<svg version="1.1" id="Слой_1" xmlns="http://www.w3.org/2000/svg" xmlns:xlink="http://www.w3.org/1999/xlink" x="0px" y="0px"
	 viewBox="0 0 22 20" style="enable-background:new 0 0 22 20;" xml:space="preserve">
<style type="text/css">
	.st0{fill:#83ADAA;}
</style>
<g id="XMLID_1_">
	<g>
		<path class="st0" d="M21.5,9.4c0.1,0.1,0.1,0.1,0.1,0.2c0.1,0.1,0.1,0.3,0.1,0.5s0,0.3-0.1,0.5c-0.1,0.1-0.1,0.1-0.1,0.2
			c0,0.1-0.1,0.1-0.1,0.2l-6.7,8c-0.2,0.3-0.5,0.4-0.9,0.5s-0.7-0.1-1-0.3c-0.3-0.2-0.4-0.6-0.5-0.9c0-0.4,0.1-0.7,0.3-1l4.8-5.8
			H1.7c-0.4,0-0.7-0.1-0.9-0.4S0.3,10.4,0.3,10s0.1-0.7,0.4-0.9s0.6-0.4,0.9-0.4h15.8l-4.8-5.8c-0.1-0.1-0.2-0.3-0.2-0.4
			c-0.1-0.2-0.1-0.4-0.1-0.5c0-0.2,0.1-0.4,0.1-0.5c0.1-0.2,0.2-0.3,0.3-0.4c0.2-0.2,0.5-0.3,0.9-0.3c0.2,0,0.4,0,0.6,0.1
			c0.2,0.1,0.3,0.2,0.5,0.4l6.7,8C21.4,9.2,21.4,9.3,21.5,9.4z"/>
	</g>
	<g>
	</g>
</g>
</svg>
