<svg width="48" height="44" viewBox="0 0 48 44" fill="none" xmlns="http://www.w3.org/2000/svg">
<path d="M19.2976 4.88197C15.1042 0.690715 6.89824 0.204712 1.0898 0.204712C0.488251 0.204712 0 0.692861 0 1.29441C0 7.10285 0.483858 15.3088 4.67726 19.5023C6.44708 21.2721 9.16061 22.0633 11.8501 22.0633C14.7729 22.0633 17.6695 21.1283 19.2976 19.5002C22.4209 16.3769 22.9942 8.57629 19.2976 4.88197ZM17.7567 17.9614C15.4246 20.2912 8.94922 20.6901 6.22047 17.9614C2.83562 14.5766 2.24928 7.70011 2.18604 2.39076C7.4954 2.454 14.3719 3.04022 17.7566 6.42508C20.4855 9.15383 20.0866 15.6315 17.7567 17.9614Z" fill="#156963"/>
<path d="M46.9105 4.51575C41.102 4.51575 32.896 4.9996 28.7025 9.193C25.0061 12.8873 25.5792 20.6879 28.7025 23.8112C30.3307 25.4372 33.2251 26.3722 36.1479 26.3722C38.8374 26.3722 41.5488 25.5832 43.3229 23.8135C47.5141 19.6201 48.0002 11.4141 48.0002 5.60555C48.0003 5.004 47.512 4.51575 46.9105 4.51575ZM41.7776 22.2702C39.0489 24.999 32.5713 24.6001 30.2414 22.2702C27.9115 19.9403 27.5126 13.4627 30.2414 10.734C33.6262 7.34911 40.5026 6.76289 45.812 6.69965C45.7488 12.0111 45.1625 18.8876 41.7776 22.2702Z" fill="#156963"/>
<path d="M39.0396 13.9489C38.7825 13.4018 38.0457 13.2144 37.503 13.4671C29.1445 17.3969 25.0383 24.2493 23.1725 31.2936C20.8644 16.3157 14.1885 11.7496 11.3573 9.81206C11.0042 9.57013 10.7295 9.39358 10.577 9.2432C10.152 8.81819 9.46105 8.81819 9.03604 9.2432C8.61103 9.66821 8.61103 10.3592 9.03604 10.7842C9.25182 10.9978 9.62452 11.2659 10.128 11.6102C13.3188 13.7919 21.795 19.5917 21.795 42.7057C21.795 43.3073 22.2833 43.7955 22.8848 43.7955C23.4864 43.7955 23.9746 43.3073 23.9746 42.708C23.9746 33.3687 26.4833 21.0564 38.4315 15.4419C38.4315 15.4398 38.6081 15.3569 38.6081 15.3569C39.1508 15.0997 39.2968 14.4937 39.0396 13.9489Z" fill="#156963"/>
</svg>
